<?xml version="1.0" encoding="UTF-8" standalone="no"?>
<!-- Generator: Adobe Illustrator 19.0.0, SVG Export Plug-In . SVG Version: 6.00 Build 0)  -->

<svg
   version="1.1"
   id="Capa_1"
   x="0px"
   y="0px"
   viewBox="0 0 512 512"
   style="enable-background:new 0 0 512 512;"
   xml:space="preserve"
   sodipodi:docname="VULA.svg"
   inkscape:version="1.1.1 (eb90963e84, 2021-10-02)"
   xmlns:inkscape="http://www.inkscape.org/namespaces/inkscape"
   xmlns:sodipodi="http://sodipodi.sourceforge.net/DTD/sodipodi-0.dtd"
   xmlns="http://www.w3.org/2000/svg"
   xmlns:svg="http://www.w3.org/2000/svg"><defs
   id="defs41">
	

		
	</defs><sodipodi:namedview
   id="namedview39"
   pagecolor="#ffffff"
   bordercolor="#666666"
   borderopacity="1.0"
   inkscape:pageshadow="2"
   inkscape:pageopacity="0.0"
   inkscape:pagecheckerboard="0"
   showgrid="false"
   inkscape:zoom="1.017006"
   inkscape:cx="575.70948"
   inkscape:cy="256.14401"
   inkscape:window-width="1920"
   inkscape:window-height="1016"
   inkscape:window-x="1920"
   inkscape:window-y="27"
   inkscape:window-maximized="1"
   inkscape:current-layer="Capa_1" />
<path
   id="path2"
   d="M 256.00195 0 C 254.54958 0 253.09791 0.2108125 251.69141 0.6328125 L 50.857422 60.882812 C 44.513422 62.785812 40.167969 68.626 40.167969 75.25 L 40.167969 296.16602 C 40.167969 324.90002 51.801187 354.3148 74.742188 383.5918 C 92.263188 405.9518 116.50406 428.40317 146.78906 450.32617 C 197.66606 487.15417 247.76505 509.74645 249.87305 510.68945 C 251.82205 511.56245 253.91195 512 256.00195 512 C 258.09195 512 260.18186 511.56345 262.13086 510.68945 C 264.23786 509.74645 314.33589 487.15417 365.21289 450.32617 C 395.49789 428.40317 419.73777 405.9518 437.25977 383.5918 C 460.20077 354.3158 471.83203 324.90102 471.83203 296.16602 L 471.83203 75.25 C 471.83203 68.626 467.48858 62.785812 461.14258 60.882812 L 260.3125 0.6328125 C 258.9065 0.2108125 257.45433 0 256.00195 0 z M 120.62109 114.11328 L 183.26562 114.11328 L 257.39258 327.33594 L 328.73438 114.11328 L 391.37891 114.11328 L 279.66602 397.88672 L 233.72656 397.88672 L 120.62109 114.11328 z "
   style="fill:#ffffff"
   inkscape:export-filename="/home/sarah/vula-gnome-shell-extension/vula@bfh.ch/icons/icon_active.png"
   inkscape:export-xdpi="96"
   inkscape:export-ydpi="96" />
<g
   id="g8">
</g>
<g
   id="g10">
</g>
<g
   id="g12">
</g>
<g
   id="g14">
</g>
<g
   id="g16">
</g>
<g
   id="g18">
</g>
<g
   id="g20">
</g>
<g
   id="g22">
</g>
<g
   id="g24">
</g>
<g
   id="g26">
</g>
<g
   id="g28">
</g>
<g
   id="g30">
</g>
<g
   id="g32">
</g>
<g
   id="g34">
</g>
<g
   id="g36">
</g>
</svg>
